<?xml version="1.0" standalone="no"?><!DOCTYPE svg PUBLIC "-//W3C//DTD SVG 1.1//EN" "http://www.w3.org/Graphics/SVG/1.1/DTD/svg11.dtd"><svg t="1532435561791" class="icon" style="" viewBox="0 0 1024 1024" version="1.1" xmlns="http://www.w3.org/2000/svg" p-id="1054" xmlns:xlink="http://www.w3.org/1999/xlink" width="200" height="200"><defs><style type="text/css"></style></defs><path d="M512 938.667c-235.264 0-426.667-191.424-426.667-426.645 0-235.264 191.403-426.688 426.667-426.688 235.243 0 426.667 191.424 426.667 426.688 0 235.221-191.424 426.645-426.667 426.645zM512 128c-211.733 0-384 172.267-384 384.021 0 211.733 172.267 383.979 384 383.979s384-172.245 384-383.979c0-211.755-172.267-384.021-384-384.021z" p-id="1055" fill="#e6e6e6"></path><path d="M448.448 738.539l-150.379-186.475 33.195-26.795 116.288 144.192 260.843-341.077 33.877 25.899z" p-id="1056" fill="#e6e6e6"></path></svg>