<?xml version="1.0" standalone="no"?><!DOCTYPE svg PUBLIC "-//W3C//DTD SVG 1.1//EN" "http://www.w3.org/Graphics/SVG/1.1/DTD/svg11.dtd"><svg t="1532490326877" class="icon" style="" viewBox="0 0 1024 1024" version="1.1" xmlns="http://www.w3.org/2000/svg" p-id="7080" xmlns:xlink="http://www.w3.org/1999/xlink" width="200" height="200"><defs><style type="text/css"></style></defs><path d="M738.765677 77.985142c-83.705424 1.221828-180.64936 23.165606-223.696782 76.603679-43.046399-53.438073-139.989311-75.382874-223.694735-76.603679-74.565253-1.086751-205.053166 19.72832-205.053166 93.205798l0 689.724751c0 41.181935 33.384341 74.565253 74.566276 74.565253 0 0 69.127404-37.282115 140.823306-37.282115 77.228919 0 157.434635 37.282115 157.434635 37.282115 22.278399 0 42.260499-9.781784 55.923684-25.270547 13.663184 15.488763 33.646308 25.270547 55.923684 25.270547 0 0 80.207763-37.282115 157.434635-37.282115 71.697949 0 140.825352 37.282115 140.825352 37.282115 41.181935 0 74.565253-33.382295 74.565253-74.565253L943.81782 171.190941C943.81782 97.713462 813.328883 76.898391 738.765677 77.985142zM496.42835 860.915691c0 20.590967-16.691147 37.282115-37.282115 37.282115 0 0-85.458347-37.282115-155.844417-37.282115-78.320787 0-142.413524 37.282115-142.413524 37.282115-20.590967 0-37.282115-16.691147-37.282115-37.282115L123.606179 171.190941c0-22.956851 43.49563-57.820893 167.769005-55.923684 72.133877 1.102101 158.977781 22.86373 205.053166 74.565253L496.42835 860.915691zM906.534681 860.915691c0 20.590967-16.691147 37.282115-37.282115 37.282115 0 0-64.09376-37.282115-142.413524-37.282115-70.385047 0-155.846464 37.282115-155.846464 37.282115-20.588921 0-37.282115-16.691147-37.282115-37.282115L533.710464 189.83251c46.077432-51.701522 132.921335-73.463152 205.055213-74.565253 124.273375-1.89721 167.769005 32.966832 167.769005 55.923684L906.534681 860.915691z" p-id="7081" fill="#4DAEA4"></path></svg>