<?xml version="1.0" standalone="no"?><!DOCTYPE svg PUBLIC "-//W3C//DTD SVG 1.1//EN" "http://www.w3.org/Graphics/SVG/1.1/DTD/svg11.dtd"><svg t="1532438742316" class="icon" style="" viewBox="0 0 1024 1024" version="1.1" xmlns="http://www.w3.org/2000/svg" p-id="3264" xmlns:xlink="http://www.w3.org/1999/xlink" width="200" height="200"><defs><style type="text/css"></style></defs><path d="M512 199.111111C227.555556 199.111111 28.444444 512 28.444444 512s145.066667 312.888889 483.555556 312.888889c341.333333 0 483.555556-312.888889 483.555556-312.888889S799.288889 199.111111 512 199.111111z m0 512c-110.933333 0-199.111111-88.177778-199.111111-199.111111s88.177778-199.111111 199.111111-199.111111 199.111111 88.177778 199.111111 199.111111-88.177778 199.111111-199.111111 199.111111z" fill="#4DAEA4" p-id="3265"></path><path d="M512 512m-85.333333 0a85.333333 85.333333 0 1 0 170.666666 0 85.333333 85.333333 0 1 0-170.666666 0Z" fill="#4DAEA4" p-id="3266"></path></svg>