<?xml version="1.0" standalone="no"?><!DOCTYPE svg PUBLIC "-//W3C//DTD SVG 1.1//EN" "http://www.w3.org/Graphics/SVG/1.1/DTD/svg11.dtd"><svg t="1540730129680" class="icon" style="" viewBox="0 0 1024 1024" version="1.1" xmlns="http://www.w3.org/2000/svg" p-id="1849" xmlns:xlink="http://www.w3.org/1999/xlink" width="48" height="48"><defs><style type="text/css"></style></defs><path d="M832 938.666667H192a85.333333 85.333333 0 0 1-85.333333-85.333334V234.666667a85.333333 85.333333 0 0 1 85.333333-85.333334h64V117.333333a32 32 0 0 1 64 0V149.333333h85.333333V117.333333a32 32 0 0 1 64 0V149.333333h85.333334V117.333333a32 32 0 0 1 64 0V149.333333h85.333333V117.333333a32 32 0 0 1 64 0V149.333333h64a85.333333 85.333333 0 0 1 85.333333 85.333334v618.666666a85.333333 85.333333 0 0 1-85.333333 85.333334z m21.333333-682.666667a42.666667 42.666667 0 0 0-42.666666-42.666667h-42.666667v32a32 32 0 0 1-64 0V213.333333h-85.333333v32a32 32 0 0 1-64 0V213.333333h-85.333334v32a32 32 0 0 1-64 0V213.333333h-85.333333v32a32 32 0 0 1-64 0V213.333333h-42.666667a42.666667 42.666667 0 0 0-42.666666 42.666667v128h682.666666v-128zM170.666667 448v384a42.666667 42.666667 0 0 0 42.666666 42.666667h597.333334a42.666667 42.666667 0 0 0 42.666666-42.666667V448H170.666667z" fill="#5C8EF3" p-id="1850"></path><path d="M698.474667 594.282667l-196.096 196.117333a32 32 0 0 1-45.248 0s0-0.149333-0.149334-0.213333h-0.149333l-105.6-105.6a32 32 0 0 1 45.269333-45.269334l83.2 83.2 173.461334-173.461333a32 32 0 0 1 45.312 45.226667z" fill="#EB9E52" p-id="1851"></path></svg>