<?xml version="1.0" standalone="no"?><!DOCTYPE svg PUBLIC "-//W3C//DTD SVG 1.1//EN" "http://www.w3.org/Graphics/SVG/1.1/DTD/svg11.dtd"><svg t="1540729801822" class="icon" style="" viewBox="0 0 1024 1024" version="1.1" xmlns="http://www.w3.org/2000/svg" p-id="1157" xmlns:xlink="http://www.w3.org/1999/xlink" width="48" height="48"><defs><style type="text/css"></style></defs><path d="M853.333333 960H170.666667a85.333333 85.333333 0 0 1-85.333334-85.333333V213.333333a85.333333 85.333333 0 0 1 85.333334-85.333333h85.333333V96a32 32 0 0 1 64 0V128h85.333333V96a32 32 0 0 1 64 0V128h85.333334V96a32 32 0 0 1 64 0V128h85.333333V96a32 32 0 0 1 64 0V128h85.333333a85.333333 85.333333 0 0 1 85.333334 85.333333v661.333334a85.333333 85.333333 0 0 1-85.333334 85.333333zM192 896h640a42.666667 42.666667 0 0 0 42.666667-42.666667V426.666667H149.333333v426.666666a42.666667 42.666667 0 0 0 42.666667 42.666667zM832 192h-64v32a32 32 0 0 1-64 0V192h-85.333333v32a32 32 0 0 1-64 0V192h-85.333334v32a32 32 0 0 1-64 0V192h-85.333333v32a32 32 0 0 1-64 0V192H192a42.666667 42.666667 0 0 0-42.666667 42.666667v128h725.333334v-128a42.666667 42.666667 0 0 0-42.666667-42.666667z" fill="#5C8EF3" p-id="1158"></path><path d="M576 821.333333c-70.698667 0-128-71.637333-128-160s57.301333-160 128-160 128 71.637333 128 160-57.301333 160-128 160z m0-256c-35.349333 0-64 42.986667-64 96s28.650667 96 64 96 64-42.986667 64-96-28.650667-96-64-96zM373.333333 832a32 32 0 0 1-32-32v-277.333333a32 32 0 0 1 64 0v277.333333a32 32 0 0 1-32 32z" fill="#EB9E52" p-id="1159"></path></svg>