<?xml version="1.0" standalone="no"?><!DOCTYPE svg PUBLIC "-//W3C//DTD SVG 1.1//EN" "http://www.w3.org/Graphics/SVG/1.1/DTD/svg11.dtd"><svg t="1540729992337" class="icon" style="" viewBox="0 0 1024 1024" version="1.1" xmlns="http://www.w3.org/2000/svg" p-id="1709" xmlns:xlink="http://www.w3.org/1999/xlink" width="48" height="48"><defs><style type="text/css"></style></defs><path d="M853.333333 938.666667H192v-1.066667a116.970667 116.970667 0 0 1-106.666667-116.266667V462.229333A78.229333 78.229333 0 0 1 163.562667 384H256V170.666667a85.333333 85.333333 0 0 1 85.333333-85.333334h512a85.333333 85.333333 0 0 1 85.333334 85.333334v682.666666a85.333333 85.333333 0 0 1-85.333334 85.333334zM256 448H176A26.666667 26.666667 0 0 0 149.333333 474.666667V800a53.333333 53.333333 0 0 0 106.666667 0V448zM874.666667 192a42.666667 42.666667 0 0 0-42.666667-42.666667H362.666667a42.666667 42.666667 0 0 0-42.666667 42.666667v629.333333a116.181333 116.181333 0 0 1-13.376 53.333334H832a42.666667 42.666667 0 0 0 42.666667-42.666667V192z m-96 597.333333h-362.666667a32 32 0 0 1 0-64h362.666667a32 32 0 0 1 0 64z m0-149.333333h-256a32 32 0 0 1 0-64h256a32 32 0 0 1 0 64z m0-149.333333h-64a32 32 0 0 1 0-64h64a32 32 0 0 1 0 64z" fill="#5B8DF0" p-id="1710"></path><path d="M608 362.666667H554.666667v53.333333a32 32 0 0 1-64 0V362.666667h-53.333334a32 32 0 0 1 0-64H490.666667v-53.333334a32 32 0 0 1 64 0V298.666667h53.333333a32 32 0 0 1 0 64z" fill="#F2A355" p-id="1711"></path></svg>