<?xml version="1.0" standalone="no"?><!DOCTYPE svg PUBLIC "-//W3C//DTD SVG 1.1//EN" "http://www.w3.org/Graphics/SVG/1.1/DTD/svg11.dtd"><svg t="1540729777712" class="icon" style="" viewBox="0 0 1024 1024" version="1.1" xmlns="http://www.w3.org/2000/svg" p-id="745" xmlns:xlink="http://www.w3.org/1999/xlink" width="48" height="48"><defs><style type="text/css"></style></defs><path d="M810.666667 960H256a128 128 0 0 1-128-128V192a128 128 0 0 1 128-128h138.666667a32 32 0 0 1 0 64H277.333333a85.333333 85.333333 0 0 0-85.333333 85.333333v465.749334A126.762667 126.762667 0 0 1 256 661.333333h576V170.666667a39.253333 39.253333 0 0 0-32-42.666667 32 32 0 0 1 0-64h10.666667a85.333333 85.333333 0 0 1 85.333333 85.333333v725.333334a85.333333 85.333333 0 0 1-85.333333 85.333333z m21.333333-192a42.666667 42.666667 0 0 0-42.666667-42.666667H277.333333a85.333333 85.333333 0 0 0 0 170.666667h512a42.666667 42.666667 0 0 0 42.666667-42.666667v-85.333333z" fill="#5B8DF0" p-id="746"></path><path d="M693.994667 427.328a31.808 31.808 0 0 1-23.082667-9.92s-0.192 0-0.277333-0.192l-73.429334-73.408-72.128 72.149333a32 32 0 0 1-55.744-21.333333V96A32 32 0 0 1 501.333333 64h192a33.386667 33.386667 0 0 1 32.661334 32.661333v298.666667a32 32 0 0 1-32 32z m-124.778667-146.026667a51.562667 51.562667 0 0 1 56.149333 0.149334l36.629334 36.629333V128H533.333333v189.184z" fill="#F2A355" p-id="747"></path></svg>