<?xml version="1.0" standalone="no"?><!DOCTYPE svg PUBLIC "-//W3C//DTD SVG 1.1//EN" "http://www.w3.org/Graphics/SVG/1.1/DTD/svg11.dtd"><svg t="1540729818401" class="icon" style="" viewBox="0 0 1024 1024" version="1.1" xmlns="http://www.w3.org/2000/svg" p-id="1569" xmlns:xlink="http://www.w3.org/1999/xlink" width="48" height="48"><defs><style type="text/css"></style></defs><path d="M840.917333 470.357333A238.357333 238.357333 0 0 1 922.688 512a4.522667 4.522667 0 0 1 0.426667 0.256 32.554667 32.554667 0 0 1 14.933333 26.368 32 32 0 0 1-32 32 31.04 31.04 0 0 1-16.661333-5.354667s-56.384-53.333333-174.677334-53.333333A309.333333 309.333333 0 0 0 405.333333 821.333333a32 32 0 0 1-64 0 373.12 373.12 0 0 1 247.082667-350.976 213.333333 213.333333 0 1 1 252.501333 0zM714.666667 149.333333a149.333333 149.333333 0 1 0 149.333333 149.333334 149.333333 149.333333 0 0 0-149.333333-149.333334z m-256 298.666667a32 32 0 0 1 0 64A309.333333 309.333333 0 0 0 149.333333 821.333333a32 32 0 0 1-64 0 373.12 373.12 0 0 1 247.082667-350.976A213.141333 213.141333 0 0 1 458.666667 85.333333a32 32 0 0 1 0 64 149.333333 149.333333 0 0 0 0 298.666667z" fill="#5C8EF2" p-id="1570"></path><path d="M930.474667 842.858667l-87.68 87.68a26.666667 26.666667 0 1 1-37.717334-37.717334L844.565333 853.333333H586.666667a32 32 0 0 1 0-64h258.282666l-39.637333-39.658666a26.666667 26.666667 0 0 1 37.696-37.696l87.68 87.68A92.288 92.288 0 0 1 938.666667 821.333333a64.234667 64.234667 0 0 1-8.192 21.525334z" fill="#F2A355" p-id="1571"></path></svg>