<?xml version="1.0" standalone="no"?><!DOCTYPE svg PUBLIC "-//W3C//DTD SVG 1.1//EN" "http://www.w3.org/Graphics/SVG/1.1/DTD/svg11.dtd"><svg t="1540729789309" class="icon" style="" viewBox="0 0 1024 1024" version="1.1" xmlns="http://www.w3.org/2000/svg" p-id="885" xmlns:xlink="http://www.w3.org/1999/xlink" width="48" height="48"><defs><style type="text/css"></style></defs><path d="M895.722667 938.666667H130.133333A90.154667 90.154667 0 0 1 85.333333 853.333333c0-78.933333 43.904-150.528 115.349334-203.861333a418.133333 418.133333 0 0 1 125.589333-65.770667 53.034667 53.034667 0 0 0 23.701333-93.717333 335.808 335.808 0 0 1-52.885333-75.989333 234.666667 234.666667 0 1 1 426.666667 6.4 276.117333 276.117333 0 0 1-50.389334 70.592 53.013333 53.013333 0 0 0 22.592 92.202666 369.493333 369.493333 0 0 1 127.232 66.133334C894.826667 702.656 938.666667 774.4 938.666667 853.333333a91.456 91.456 0 0 1-42.944 85.333334zM874.666667 810.666667c-16.405333-52.288-88.085333-129.194667-206.677334-167.850667 0 0-78.656-41.386667-77.994666-110.826667a137.834667 137.834667 0 0 1 35.904-85.141333 170.666667 170.666667 0 1 0-226.752 0.96 118.016 118.016 0 0 1 34.858666 83.52c0 69.994667-82.005333 113.066667-82.005333 113.066667-118.037333 39.786667-190.229333 116.885333-202.666667 166.250666a50.773333 50.773333 0 0 0 44.8 64h637.696C859.733333 865.856 887.253333 850.816 874.666667 810.666667z" fill="#5B8DF0" p-id="886"></path><path d="M416 342.336a171.456 171.456 0 0 0 88.661333 32.661333 233.216 233.216 0 0 0 103.338667-32.661333 26.069333 26.069333 0 0 1 32 32 70.570667 70.570667 0 0 1-32 32 263.018667 263.018667 0 0 1-101.333333 26.005333 207.04 207.04 0 0 1-90.666667-26.005333 71.701333 71.701333 0 0 1-32-32 25.002667 25.002667 0 0 1 32-32z" fill="#F2A355" p-id="887"></path></svg>